<svg xmlns="http://www.w3.org/2000/svg" viewBox="0 0 144 54" enable-background="new 0 0 144 54"><g fill="#fff"><path d="M63.17 15.504v6.194h-3.763v-21.336h6.526c5.671 0 8.527 3.127 8.527 7.587 0 4.463-2.822 7.555-9.258 7.555h-2.032zm-2.183 6.736l2.729 1.793h-.759l-2.696-1.793h.726zm1.667 0l2.705 1.793h-.729l-2.734-1.793h.758zm.516-18.415v8.343h2.49c3.521 0 4.733-1.879 4.733-4.219 0-2.333-1.183-4.124-4.733-4.124h-2.49zm.547 18.415v-.392l3.006 1.971v.214h-.426l-2.729-1.793h.149zm3.006-15.866v.481l-3.006-2v-.485l3.006 2.004zm-3.006-.911l3.006 2v.486l-3.006-2v-.486zm0 1.094l3.006 2.003v.484l-3.006-2.001v-.486zm0 1.091l3.006 2.003v.487l-3.006-2.004v-.486zm0 1.094l3.006 2v.484l-3.006-2v-.484zm1.972 2.879l-1.973-1.303v-.486l2.672 1.761c-.243.028-.454.028-.699.028zm-.908 0h-.758l-.307-.209v-.486l1.065.695zm-1.064 4.768l3.006 2v.486l-3.006-2v-.486zm0 1.088l3.006 2.006v.484l-3.006-2.003v-.487zm0 1.096l3.006 1.999v.488l-3.006-2.002v-.485zm0 1.093l3.006 2v.456l-3.006-1.974v-.482zm0 1.094l3.006 1.97v.487l-3.006-1.976v-.481zm1.155-4.707l2.702 1.79h-.731l-2.729-1.79h.758zm.487-11.683l2.725 1.789h-.754l-2.699-1.789h.728zm.419 11.683l.669-.03 2.793 1.82h-.758l-2.704-1.79zm3.218-9.894l-2.672-1.758c.368.032.67.091.973.152l2.003 1.337.183.27h-.487zm1.092 11.654l-2.82-1.851.607-.094 2.853 1.885-.64.06zm1.398-.151l-2.886-1.911.548-.152 2.912 1.943-.574.12zm1.274-.306l-2.974-1.941.455-.181 3.005 1.972c-.152.062-.333.122-.486.15zm1.061-.36l-3.006-1.976.397-.211 3.036 2.001-.427.186zm.945-.486l-3.036-2.004c.121-.059.21-.155.331-.244l3.064 2.035-.359.213zm.816-.547l-3.097-2.032.334-.273 3.064 2.034-.301.271zm.67-.637l-3.067-2.033.243-.303 3.096 2.03-.272.306zm-2.307-3.097l3.094 2.033c-.061.126-.123.244-.212.336l-3.095-2.033c.089-.088.149-.214.213-.336zm2.667-6.432l-2.334-1.519c-.091-.239-.215-.453-.333-.696l1.092.73c.606.422 1.153.911 1.575 1.485zm.672 8.013l-3.097-2.036.18-.361 3.098 2.031-.181.366zm.181-6.438l-2.735-1.821-.18-.572 2.638 1.727.277.666zm.18 5.583l-3.095-2.029.121-.425 3.065 2.03-.091.424zm.212-.938l-3.062-2.03.092-.426 3.029 2.002c0 .151-.029.301-.059.454zm0-3.275l-2.914-1.946-.089-.513 2.882 1.881.121.578zm.119 2.276l-3.032-2.004c.031-.15.031-.302.031-.486l3.038 2.003c0 .153 0 .303-.037.487zm.037-1.095l-3.006-1.974c0-.18 0-.33-.032-.51l2.971 1.969.067.515zM90.701 17.447h-9.162l-1.85 4.251h-3.946l10.017-21.515h.847l10.015 21.516h-4.033l-1.888-4.252zm-12.257 4.793l2.731 1.793h-.758l-2.701-1.793h.728zm1.606 0v-.025l2.765 1.818h-.729l-2.732-1.793h.696zm.368-.881l3.124 2.037-.18.394-3.097-2.064.153-.367zm.393-.844l3.1 2.034-.154.395-3.129-2.033.183-.396zm.365-.849l3.095 2.032-.15.392-3.127-2.034.182-.39zm.363-.85l3.098 2.064-.152.36-3.131-2.03.185-.394zm.363-.823h.064l3.064 2.037-.186.364-3.094-2.035.152-.366zm.973-3.546h6.493l-3.247-7.347-3.246 7.347zm.727 3.546l2.733 1.791h-.761l-2.699-1.791h.727zm.154-4.247l.273.152h-.336l.063-.152zm.214-.484l.181-.366 1.547 1.003h-.76l-.968-.637zm.545-1.213l2.821 1.85h-.76l-2.217-1.457.156-.393zm.758 5.944l2.701 1.791h-.728l-2.732-1.791h.759zm-.367-6.796l3.099 2.035-.184.393-3.096-2.032.181-.396zm3.069 1.43l-2.885-1.885.184-.395 2.396 1.609c.09.212.182.456.305.671zm-.699-1.551l-1.79-1.184.147-.392 1.339.879.304.697zm-.7-1.515l-.729-.517.151-.366.306.186.272.697zm.337 8.432l2.729 1.791h-.758l-2.702-1.791h.731zm3.275-15.292l.301.667-2.637-1.758-.302-.636 2.638 1.727zm.363 17.083l-2.729-1.791h.759l2.486 1.641.062.15h-.578zm-2.305-17.292l2.641 1.755.33.701-2.637-1.73-.334-.726zm.756 1.575l2.643 1.759.331.699-2.637-1.729-.337-.729zm1.215 13.926l.153.121.302.675-1.181-.796h.726zm-.485-12.347l2.641 1.763.334.69-2.638-1.726-.337-.727zm.756 1.607l2.643 1.729.305.699-2.608-1.732-.34-.696zm.729 1.578l2.646 1.729.33.696-2.638-1.726-.338-.699zm.759 1.579l2.613 1.728.302.702-2.577-1.734-.338-.696zm.731 1.577l2.61 1.729.301.696-2.578-1.729-.333-.696zm.729 1.579l2.578 1.698.333.728-2.581-1.697-.33-.729zm.728 1.547l2.578 1.697.335.731-2.583-1.7-.33-.728zm.85 7.127l2.73 1.793h-.756l-2.706-1.793h.732zm-.123-5.519l2.611 1.702.305.694-2.578-1.699-.338-.697zm.727 1.551l2.61 1.724.336.701-2.643-1.73-.303-.695zm1.032 3.968l2.732 1.793h-.729l-2.732-1.793h.729zm-.303-2.394l2.608 1.731.335.663-2.606-1.695-.337-.699zm.73 1.581l2.608 1.694.334.698-2.61-1.697-.332-.695zM117.449 10.501v9.133s-3.19 2.429-8.253 2.429c-7.222 0-12.022-4.734-12.022-11.045 0-6.163 5.189-11.018 11.506-11.018 4.762 0 7.525 1.729 7.525 1.729l-1.305 3.219s-2.764-1.397-5.583-1.397c-5.007 0-8.071 3.154-8.071 7.525 0 4.277 3.274 7.434 7.705 7.434 1.971 0 3.703-.426 4.855-.848v-3.791h-5.949v-3.37h9.592zm-15.66.089l3.038 2.005c0 .15 0 .301-.03.452l-3.008-1.971v-.486zm.033 1.096l2.975 1.939v.519l-2.916-1.944c-.032-.183-.059-.336-.059-.514zm3.094.331l-3.067-2.001.065-.455 3.091 2.032-.089.424zm-2.914.879l2.853 1.882c.032.184.062.398.121.576l-2.79-1.847-.184-.611zm3.126-1.82l-3.096-2.032c.032-.121.091-.276.153-.396l3.064 2.035c-.034.124-.061.272-.121.393zm.334-.88l-3.124-2.032.18-.395 3.127 2.062-.183.365zm-2.885 4.192l2.581 1.694.244.669-2.309-1.548c-.214-.242-.363-.544-.516-.815zm3.31-4.98l-3.124-2.064c.089-.123.148-.243.245-.332l3.094 2.032-.215.364zm.515-.76l-3.094-2.064.273-.301 3.098 2.064-.277.301zm.637-.667l-3.096-2.032.336-.303 3.094 2.031c-.123.093-.242.184-.334.304zm.756-.609l-3.094-2.03.397-.213 3.065 2.006c-.122.058-.239.15-.368.237zm-1.059 15.691l-1.369-.908c.336.085.703.15 1.064.21l2.152 1.425c-.632-.181-1.274-.455-1.847-.727zm1.914-16.208l-3.035-2 .455-.211 3.002 2.001-.422.21zm1-.449l-2.971-1.943c.178-.062.359-.093.54-.121l2.913 1.914-.482.15zm.423 17.748l-2.458-1.639c.271.033.549.063.825.063l2.573 1.697c-.332-.028-.636-.058-.94-.121zm.761-18.049l-2.883-1.918c.213-.028.422-.061.633-.061l2.854 1.881-.604.098zm-2.154 8.308h.607l2.699 1.795h-.609l-2.697-1.795zm3.398 9.954l-2.701-1.763.696-.025 2.763 1.818c-.272 0-.513 0-.758-.03zm.119-18.45l-2.729-1.82c.276 0 .548.03.817.062l2.641 1.73c-.242.001-.486.001-.729.028zm.729 10.291l-2.729-1.795h.726l2.336 1.55v.245h-.333zm.76 8.159l-2.824-1.852.639-.09 2.885 1.881-.7.061zm.244-18.418l-2.34-1.548 1.275.362 2.006 1.342-.941-.156zm-1.336 8.464l.664.424v.517l-1.392-.94h.728zm2.547 9.804l-2.914-1.911.548-.121 2.943 1.94-.577.092zm1.275-.242l-2.975-1.974c.15-.029.333-.089.488-.152l3.004 1.971-.517.155zm-1.395-2.491l3.035 2.004-.459.15-3.035-1.973.459-.181zm1.333-15.019l-1.15-.76.15-.393 2.518 1.67c-.361-.127-.878-.336-1.518-.517zm-.663-2.002l3.094 2.032-.158.36-3.09-2.03.154-.362zm2.969 18.783l-3.062-2.005.422-.181 3.066 2.003-.426.183zm-2.608-19.664l3.094 2.034-.183.392-3.062-2.031.151-.395zm.364-.849l3.063 2.03-.148.397-3.065-2.032.15-.395zm3.217 20.089l-3.094-2.036.395-.214 3.124 2.032-.425.218zm.029-18.452l-3.094-2.034.121-.271c3.002 2.032 3.034 2.032 3.063 2.032l-.09.273zm.879 17.936l-3.092-2.003.363-.247 3.094 2.034-.365.216zm-2.548-10.865l3.003 1.973v.484l-3.003-1.971v-.486zm0 1.061l3.003 2.004v.481l-3.003-1.997v-.488zm0 1.09l3.003 2.007v.483l-3.003-2.001v-.489zm0 1.096l3.003 2.001v.486l-3.003-1.973v-.514zm0 1.093l3.003 2.002v.489l-3.003-2.005v-.486zm0 1.094l3.003 2v.489l-3.003-1.977v-.512zm0 1.089l3.003 2.003v.486l-3.003-1.973v-.516zm0 1.124l3.003 1.973v.486l-3.003-2.006v-.453zM123.653.362h13.867v3.463h-10.106v5.977h9.164v3.341h-9.164v5.096h10.106v3.46h-13.867v-21.337zm.82 21.878h.027l2.702 1.793h-.03l-2.699-1.793zm1.667 0l2.734 1.793h-.764l-2.729-1.793h.759zm1.67 0l2.697 1.793h-.727l-2.729-1.793h.759zm.15-17.355l3.006 1.971v.488l-3.006-1.969v-.49zm0 1.094l3.006 1.971v.489l-3.006-1.974v-.486zm2.581 3.277l-2.581-1.696v-.49l3.006 1.974v.212h-.425zm-2.581-1.092l1.67 1.092h-.73l-.94-.607v-.485zm0 5.52h.121l2.885 1.915v.483l-3.006-1.974v-.424zm0 1.035l3.006 1.971v.486l-3.006-1.973v-.484zm0 1.093l2.888 1.882h-.759l-2.129-1.397v-.485zm1.215 1.882h-.73l-.484-.307v-.483l1.214.79zm1.791-11.438l-2.856-1.886h.764l2.699 1.789h-.607v.097zm-1.517 15.984l2.729 1.793h-.755l-2.699-1.793h.725zm.27-8.556l2.733 1.793h-.758l-2.702-1.793h.727zm.788-9.314l2.735 1.789h-.76l-2.702-1.789h.727zm.612 17.87l2.696 1.793h-.728l-2.729-1.793h.761zm.274-8.556l2.697 1.793h-.729l-2.728-1.793h.76zm.785-9.314l2.703 1.789h-.727l-2.731-1.789h.755zm.578 17.87l2.729 1.793h-.752l-2.705-1.793h.728zm.302-8.556l2.704 1.793h-.761l-2.701-1.793h.758zm.757-9.314l2.735 1.789h-.76l-2.703-1.789h.728zm.609 17.87l2.732 1.793h-.758l-2.701-1.793h.727zm.273-8.556l2.73 1.793h-.76l-2.697-1.793h.727zm.787-9.314l2.699 1.789h-.729l-2.723-1.789h.753zm.608 17.87l2.701 1.793h-.728l-2.731-1.793h.758zm.272-8.556l2.704 1.793h-.73l-2.729-1.793h.755zm.763-9.314l2.731 1.789h-.727l-2.733-1.789h.729zm.607 17.87l2.731 1.793h-.759l-2.701-1.793h.729zm2.397-9.645l-3.004-1.976v-.452l3.004 2.001v.427zm-3.004-1.49l3.004 1.971v.431l-3.004-1.974v-.428zm0 .912l3.004 1.972v.484l-3.004-1.971v-.485zm2.882 3.46l-2.882-1.885v-.482l3.004 1.975v.393h-.122zm1.062-12.289l-3.006-2.001v-.456l3.006 2.002v.455zm-3.006-1.484l3.006 2.001v.482l-3.006-2.001v-.482zm0 1.089l3.006 2.004v.483l-3.006-2.001v-.486zm2.703 3.366l-2.702-1.789v-.485l3.006 2.005v.27h-.304zm-2.703 13.02l3.006 2.003v.484l-3.006-2v-.487zm0 1.092l3.006 1.969v.489l-3.006-1.97v-.488zm0 1.088l3.006 1.976v.484l-3.006-1.971v-.489zM62.64 51.664c-2.519 0-5.036-.853-6.979-2.035l1.304-3.398c1.761 1.186 3.883 1.914 5.799 1.914 2.519 0 3.667-1.245 3.667-2.61 0-1.427-.787-2.276-4.639-3.702-4.156-1.516-5.585-3.486-5.585-6.041 0-3.218 2.61-6.188 7.159-6.188 2.277 0 4.525.669 5.891 1.458l-1.213 3.336c-1.245-.699-3.127-1.428-4.766-1.428-2.246 0-3.277 1.247-3.277 2.734 0 1.362 1.155 2.215 4.158 3.31 4.762 1.845 6.127 3.73 6.127 6.521-.001 3.793-2.883 6.129-7.646 6.129zm-3.006.15l1.823 1.212c-.729-.303-1.396-.637-2.033-1.031l-.639-.425.849.244zm3.977-14.353l-3.065-2 .091-.459 3.098 2.031c-.063.156-.095.278-.124.428zm-1.305.245l-1.245-.82c-.241-.271-.395-.517-.485-.819l2.976 1.973v.18c-.489-.181-.882-.364-1.246-.514zm1.672-1.092l-3.131-2.066.276-.302 3.094 2.031c-.088.121-.18.216-.239.337zm-2.126 15.564l2.516 1.64c-.359-.062-.728-.12-1.09-.213l-2.334-1.546c.3.059.601.088.908.119zm2.758-16.239l-3.065-2.029.428-.182 3.035 1.975-.398.236zm.973-.449l-2.913-1.912c.182-.031.394-.059.607-.059h.059l2.793 1.848c-.18.031-.362.06-.546.123zm-2.092 16.688l2.761 1.822-.76-.031-2.699-1.762.698-.029zm1.425-.151l2.85 1.879-.637.062-2.82-1.883.607-.058zm2.063-16.719l-2.52-1.64c.428.091.883.213 1.337.365l2.034 1.334c-.304-.027-.577-.059-.851-.059zm-.879 16.415l2.976 1.944c-.186.062-.368.088-.583.121l-2.909-1.914.516-.151zm1.064-.395l3.029 1.973-.486.181-3-1.971.457-.183zm.908-.486l3.065 2.007-.397.213-3.063-2.005.395-.215zm1.063-15.201l-.791-.516.148-.393 2.309 1.545c-.516-.241-1.059-.457-1.666-.636zm-.305 14.625l3.096 2.008-.331.27-3.067-2.002.302-.276zm2.912-13.989l-3.064-2.031.123-.395 3.095 2.034-.154.392zm-2.607-3.308l3.092 2.033c-.029.123-.09.276-.148.396l-3.098-2.031.154-.398zm.362 16.63l3.095 2.001-.271.309-3.097-2.005.273-.305zm2.915-15.081l-3.095-2.029.118-.396 3.127 2.064c-.029.118-.091.239-.15.361zm.301-.789l-3.127-2.063.121-.304 3.127 2.035c-.029.123-.062.244-.121.332zm-2.699 15.11l3.098 2.034-.214.366-3.123-2.062.239-.338zm2.398-4.49l-2.062-1.363-.156-.335.788.516c.582.392 1.032.787 1.43 1.182zm-2.003 3.643l3.096 2.062-.155.366-3.126-2.031.185-.397zm3.247 1.545l-3.097-2.03c.062-.123.091-.273.121-.429l3.035 2.037-.059.422zm-.092-3.336l-2.824-1.853-.119-.575 2.638 1.761c.123.213.212.454.305.667zm-2.763-.121l3.038 2.003c0 .15 0 .306-.035.457l-3.032-2.003.029-.457zm3.003 1.395l-2.971-1.973c0-.18 0-.333-.032-.516l2.943 1.943c.03.186.06.366.06.546zM76.032 29.967h3.764v21.332h-3.764v-21.332zm.818 21.878h.516l2.734 1.793h-.547l-2.703-1.793zm1.851 0l2.702 1.793h-.575l-2.734-1.793h.607zm1.549 0l2.729 1.793h-.758l-2.699-1.793h.728zm3.095-19.086l-3.003-1.971v-.457l3.003 2.006v.422zm-3.003-1.516l3.003 1.971v.392l-3.003-1.971v-.392zm0 .999l3.003 1.974v.484l-3.003-1.971v-.487zm0 1.09l3.003 1.976v.483l-3.003-1.973v-.486zm0 1.094l3.003 1.973v.487l-3.003-1.974v-.486zm0 1.094l3.003 1.971v.487l-3.003-1.971v-.487zm0 1.094l3.003 1.971v.489l-3.003-1.979v-.481zm0 1.092l3.003 1.97v.489l-3.003-1.976v-.483zm0 1.091l3.003 1.976v.482l-3.003-1.974v-.484zm0 1.095l3.003 1.971v.487l-3.003-1.972v-.486zm0 1.09l3.003 1.975v.482l-3.003-1.971v-.486zm0 1.094l3.003 1.971v.485l-3.003-1.974v-.482zm0 1.09l3.003 1.971v.486l-3.003-1.971v-.486zm0 1.094l3.003 1.971v.486l-3.003-1.973v-.484zm0 1.092l3.003 1.971v.483l-3.003-1.97v-.484zm0 1.088l3.003 1.979v.481l-3.003-1.971v-.489zm0 1.095l3.003 1.973v.486l-3.003-1.971v-.488zm0 1.092l3.003 1.975v.484l-3.003-1.971v-.488zm0 1.096l3.003 1.971v.484l-3.003-1.971v-.484zm0 1.089l3.003 1.974v.484l-3.003-1.971v-.487zM84.443 29.967h17.932v3.461h-7.012v17.871h-3.79v-17.871h-7.13v-3.461zm.818 4.003h.546l2.701 1.792h-.543l-2.704-1.792zm1.849 0l2.731 1.792h-.601l-2.705-1.792h.575zm3.646 1.792l-2.731-1.792h.759l2.242 1.491v.301h-.27zm-.307-1.792l.576.396v.484l-1.334-.881h.758zm1.942 17.875h.637l2.702 1.793h-.636l-2.703-1.793zm2.005 0l2.731 1.793h-.699l-2.703-1.793h.671zm1.516 0v-.06l2.788 1.853h-.727l-2.729-1.793h.668zm0-17.538l2.998 1.999v.489l-2.998-2.006v-.482zm0 1.091l2.998 2.006v.482l-2.998-2.001v-.487zm0 1.095l2.998 2.003v.483l-2.998-2.005v-.481zm0 1.089l2.998 1.971v.517l-2.998-2.001v-.487zm0 1.092l2.998 2.006v.484l-2.998-2.001v-.489zm0 1.095l2.998 2.003v.485l-2.998-1.999v-.489zm0 1.088l2.998 2.007v.487l-2.998-2.006v-.488zm0 1.094l2.998 2.003v.485l-2.998-1.999v-.489zm0 1.094l2.998 2.002v.487l-2.998-2.003v-.486zm0 1.096l2.998 1.998v.489l-2.998-2.007v-.48zm0 1.091l2.998 2.001v.483l-2.998-2.003v-.481zm0 1.093l2.998 1.997v.488l-2.998-2.004v-.481zm0 1.091l2.998 2v.487l-2.998-2.003v-.484zm0 1.092l2.998 2.003v.487l-2.998-2.009v-.481zm0 1.091l2.998 1.972v.488l-2.998-1.973v-.487zm0 1.092l2.998 1.973v.486l-2.998-1.971v-.488zm1.153-16.721l2.699 1.792h-.726l-2.736-1.792h.763zm1.635 0l2.734 1.792h-.761l-2.7-1.792h.727zm1.675 0l2.727 1.792h-.756l-2.702-1.792h.731zm1.67 0l2.699 1.792h-.729l-2.734-1.792h.764zm3.882-1.211l-3.003-1.971v-.457l3.003 2.006v.422zm-3.003-1.488l3.003 2.007v.481l-3.003-1.974v-.514zm0 1.092l3.003 2.003v.484l-3.003-1.971v-.516zm2.726 3.399l-2.727-1.792v-.515l3.003 2.006v.301h-.276zM107.025 29.967h13.869v3.461h-10.105v5.975h9.164v3.341h-9.164v5.098h10.105v3.458h-13.869v-21.333zm.826 21.878h.03l2.695 1.793h-.026l-2.699-1.793zm1.667 0l2.73 1.793h-.76l-2.731-1.793h.761zm1.668 0l2.699 1.793h-.729l-2.73-1.793h.76zm.152-17.361l3.002 1.974v.487l-3.002-1.972v-.489zm0 1.095l3.002 1.974v.486l-3.002-1.973v-.487zm2.577 3.282l-2.577-1.701v-.488l3.002 1.975v.215h-.425zm-2.577-1.093l1.668 1.094h-.726l-.942-.612v-.482zm0 5.519h.118l2.884 1.912v.485l-3.002-1.974v-.423zm0 1.031l3.002 1.972v.489l-3.002-1.974v-.487zm0 1.095l2.884 1.882h-.763l-2.121-1.395v-.487zm1.215 1.882h-.729l-.485-.303v-.49l1.214.793zm1.787-11.44l-2.852-1.886h.76l2.702 1.792h-.61v.094zm-1.514 15.99l2.727 1.793h-.756l-2.701-1.793h.73zm.272-8.558l2.729 1.79h-.758l-2.699-1.79h.728zm.787-9.317l2.735 1.792h-.764l-2.7-1.792h.729zm.605 17.875l2.702 1.793h-.727l-2.733-1.793h.758zm.272-8.558l2.705 1.79h-.729l-2.73-1.79h.754zm.791-9.317l2.702 1.792h-.729l-2.729-1.792h.756zm.58 17.875l2.729 1.793h-.759l-2.699-1.793h.729zm.301-8.558l2.7 1.79h-.759l-2.697-1.79h.756zm.758-9.317l2.731 1.792h-.761l-2.697-1.792h.727zm.608 17.875l2.731 1.793h-.761l-2.699-1.793h.729zm.274-8.558l2.729 1.79h-.756l-2.702-1.79h.729zm.788-9.317l2.699 1.792h-.726l-2.732-1.792h.759zm.608 17.875l2.699 1.793h-.729l-2.729-1.793h.759zm.271-8.558l2.701 1.79h-.73l-2.729-1.79h.758zm.761-9.317l2.731 1.792h-.729l-2.733-1.792h.731zm.61 17.875l2.724 1.793h-.756l-2.696-1.793h.728zm2.393-9.648l-3.003-1.978v-.451l3.003 2.003v.426zm-3.003-1.49l3.003 1.971v.43l-3.003-1.974v-.427zm0 .912l3.003 1.971v.487l-3.003-1.976v-.482zm2.883 3.458l-2.883-1.884v-.479l3.003 1.971v.393h-.12zm1.064-12.288l-3.009-2.001v-.457l3.009 2.006v.452zm-3.009-1.486l3.009 2v.489l-3.009-2.007v-.482zm0 1.09l3.009 2.004v.486l-3.009-2.003v-.487zm2.703 3.369l-2.702-1.792v-.484l3.009 2.005v.271h-.307zm-2.703 13.019l3.009 2.001v.486l-3.009-2.003v-.484zm0 1.092l3.009 1.972v.489l-3.009-1.974v-.487zm0 1.09l3.009 1.975v.484l-3.009-1.973v-.486zM132.803 51.664c-2.521 0-5.041-.853-6.979-2.035l1.305-3.398c1.758 1.186 3.881 1.914 5.793 1.914 2.519 0 3.669-1.245 3.669-2.61 0-1.427-.79-2.276-4.638-3.702-4.159-1.516-5.584-3.486-5.584-6.041 0-3.218 2.608-6.188 7.16-6.188 2.271 0 4.521.669 5.887 1.458l-1.213 3.336c-1.246-.699-3.129-1.428-4.766-1.428-2.244 0-3.275 1.247-3.275 2.734 0 1.362 1.148 2.215 4.154 3.31 4.77 1.845 6.135 3.73 6.135 6.521 0 3.793-2.887 6.129-7.648 6.129zm-3.006.15l1.82 1.212c-.729-.303-1.395-.637-2.032-1.031l-.636-.425.848.244zm3.974-14.353l-3.06-2 .087-.459 3.097 2.031c-.059.156-.094.278-.124.428zm-1.304.245l-1.239-.82c-.245-.271-.397-.517-.487-.819l2.971 1.973v.18c-.489-.181-.88-.364-1.245-.514zm1.67-1.092l-3.127-2.066.277-.302 3.091 2.031c-.089.121-.183.216-.241.337zm-2.121 15.564l2.517 1.64c-.366-.062-.731-.12-1.095-.213l-2.336-1.546c.303.059.607.088.914.119zm2.755-16.239l-3.062-2.029.425-.182 3.038 1.975-.401.236zm.976-.449l-2.915-1.912c.181-.031.391-.059.605-.059h.062l2.788 1.848c-.178.031-.359.06-.54.123zm-2.097 16.688l2.766 1.822-.764-.031-2.701-1.762.699-.029zm1.424-.151l2.857 1.879-.639.062-2.826-1.883.608-.058zm2.069-16.719l-2.52-1.64c.422.091.877.213 1.336.365l2.033 1.334c-.306-.027-.578-.059-.849-.059zm-.883 16.415l2.977 1.944c-.18.062-.365.088-.578.121l-2.911-1.914.512-.151zm1.059-.395l3.041 1.973-.484.181-3.011-1.971.454-.183zm.919-.486l3.061 2.007-.394.213-3.066-2.005.399-.215zm1.06-15.201l-.788-.516.148-.393 2.31 1.545c-.517-.241-1.065-.457-1.67-.636zm-.304 14.625l3.092 2.008-.334.27-3.062-2.002.304-.276zm2.914-13.989l-3.067-2.031.124-.395 3.096 2.034-.153.392zm-2.61-3.308l3.095 2.033c-.027.123-.092.276-.154.396l-3.097-2.031.156-.398zm.362 16.63l3.093 2.001-.269.309-3.098-2.005.274-.305zm2.915-15.081l-3.097-2.029.123-.396 3.126 2.064c-.029.118-.088.239-.152.361zm.304-.789l-3.126-2.063.123-.304 3.124 2.034c-.033.124-.059.245-.121.333zm-2.704 15.11l3.095 2.034-.213.366-3.124-2.062c.09-.091.158-.215.242-.338zm2.4-4.49l-2.064-1.363-.15-.335.788.516c.574.392 1.031.787 1.426 1.182zm-2.003 3.643l3.098 2.062-.154.366-3.126-2.031.182-.397zm3.245 1.545l-3.097-2.03c.062-.123.099-.273.125-.429l3.031 2.037-.059.422zm-.088-3.336l-2.823-1.853-.123-.575 2.645 1.761c.115.213.207.454.301.667zm-2.761-.121l3.032 2.003c0 .15 0 .306-.027.457l-3.038-2.003.033-.457zm3.005 1.395l-2.979-1.973c0-.18 0-.333-.026-.516l2.943 1.943c.032.186.062.366.062.546z"/></g><path fill="#fff" d="M27 0c-14.912 0-27 12.09-27 27s12.088 27 27 27c14.911 0 27-12.09 27-27s-12.089-27-27-27zm4.665 45h-6.349v-27.963l-7.583 2.922-2.148-5.379 14.542-5.58h1.538v36z"/></svg>